<svg width="25" height="24" viewBox="0 0 25 24" fill="none" xmlns="http://www.w3.org/2000/svg">
<path d="M22 12H19.889M19.889 12C19.889 13.9598 19.111 15.8389 17.7252 17.2247C16.3394 18.6105 14.4598 19.389 12.5 19.389M19.889 12C19.889 10.0402 19.111 8.16013 17.7252 6.77433C16.3394 5.38853 14.4598 4.611 12.5 4.611M12.5 2.5V4.611M12.5 4.611C10.5403 4.611 8.66089 5.38848 7.27519 6.77419C5.88948 8.15989 5.111 10.0393 5.111 11.999C5.111 13.9587 5.88948 15.8381 7.27519 17.2238C8.66089 18.6095 10.5403 19.389 12.5 19.389M3 12H5.111M12.5 21.5V19.389" stroke="black" stroke-width="1.5" stroke-miterlimit="10" stroke-linecap="round"/>
<path d="M12.4998 16.2218C13.6196 16.2218 14.6935 15.777 15.4852 14.9852C16.277 14.1935 16.7218 13.1196 16.7218 11.9998C16.7218 10.8801 16.277 9.80621 15.4852 9.01443C14.6935 8.22265 13.6196 7.77783 12.4998 7.77783C11.3801 7.77783 10.3062 8.22265 9.51443 9.01443C8.72265 9.80621 8.27783 10.8801 8.27783 11.9998C8.27783 13.1196 8.72265 14.1935 9.51443 14.9852C10.3062 15.777 11.3801 16.2218 12.4998 16.2218Z" stroke="#306CFE" stroke-miterlimit="10" stroke-linecap="round"/>
</svg>
